<svg xmlns="http://www.w3.org/2000/svg" viewBox="0 0 190 150.7" width="190" height="150.7"><g fill="#fdd946"><path d="M132.2 0l-17.5 24.7c7.3.4 14.1 2.3 20.3 5.5L132.2 0zM91.8 0L89 30.2c6.1-3.2 13-5 20.3-5.5L91.8 0zM60.7 28.5c6 2.1 11.5 5.8 15.7 10.8 2.4-2.4 5-4.6 8-6.4L56.7 20.2l3.9 8.3zM162.6 72.7l24.8-17.5-30.2-2.8c3.1 6.1 5 13 5.4 20.3zM154.5 47.7l12.7-27.5-27.6 12.7c6 3.8 11 8.9 14.9 14.8zM90.4 136.2l1.4 14.5 5.6-7.9c-2.8-1.7-5.1-4-7-6.6zM132.2 150.7l.4-4.3H129zM69.5 103l-12.7 27.5L84.3 118c-5.9-3.9-11-9-14.8-14.9zM170.3 91.8c4.4.4 8.5 2 12 4.2l5-.4L162.7 78c0 1.6-.2 3.2-.5 4.7 3.2 2.5 6 5.5 8.2 9z"/><path d="M106.6 99.9A35.7 35.7 0 0 1 157 79.5l.2-4.1a45.2 45.2 0 0 0-77-32.2 27.4 27.4 0 0 1-3.9 54.5h-3.7a45.5 45.5 0 0 0 15.6 16.1 23.4 23.4 0 0 1 18.4-14z"/></g><path d="M18.6 93a18.6 18.6 0 0 1-1-37.2l1.6-.1.5-1.7a30.8 30.8 0 0 1 56-7.4l.7 1 1.3.1A22.6 22.6 0 0 1 76.3 93H18.6zM109.7 141.6a18.6 18.6 0 0 1-1.1-37.1l1.7-.1.5-1.7a30.8 30.8 0 0 1 56-7.5l.7 1.1 1.3.1a22.6 22.6 0 0 1-1.4 45.2h-57.7z" fill="#d4d3d3"/></svg>